<?xml version="1.0" encoding="UTF-8" standalone="no"?>
<!DOCTYPE svg PUBLIC "-//W3C//DTD SVG 1.1//EN"
 "http://www.w3.org/Graphics/SVG/1.1/DTD/svg11.dtd">
<!-- Generated by graphviz version 3.0.0 (20221109.1736)
 -->
<!-- Title: Lvl3Mage.InterpolationToolkit.Splines.VibrationSplineCreator Pages: 1 -->
<svg width="240pt" height="95pt"
 viewBox="0.00 0.00 240.00 95.00" xmlns="http://www.w3.org/2000/svg" xmlns:xlink="http://www.w3.org/1999/xlink">
<g id="graph0" class="graph" transform="scale(1 1) rotate(0) translate(4 91)">
<title>Lvl3Mage.InterpolationToolkit.Splines.VibrationSplineCreator</title>
<polygon fill="white" stroke="transparent" points="-4,4 -4,-91 236,-91 236,4 -4,4"/>
<!-- Node1 -->
<g id="node1" class="node">
<title>Node1</title>
<g id="a_node1"><a xlink:title=" ">
<polygon fill="#bfbfbf" stroke="black" points="41.5,-0.5 41.5,-30.5 189.5,-30.5 189.5,-0.5 41.5,-0.5"/>
<text text-anchor="start" x="49.5" y="-18.5" font-family="Helvetica,sans-Serif" font-size="10.00">Lvl3Mage.InterpolationToolkit.</text>
<text text-anchor="middle" x="115.5" y="-7.5" font-family="Helvetica,sans-Serif" font-size="10.00">Splines.VibrationSplineCreator</text>
</a>
</g>
</g>
<!-- Node2 -->
<g id="node2" class="node">
<title>Node2</title>
<g id="a_node2"><a xlink:href="a00080.html" target="_top" xlink:title=" ">
<polygon fill="white" stroke="#bfbfbf" points="0,-67.5 0,-86.5 107,-86.5 107,-67.5 0,-67.5"/>
<text text-anchor="middle" x="53.5" y="-74.5" font-family="Helvetica,sans-Serif" font-size="10.00">I4PointSplineFactory</text>
</a>
</g>
</g>
<!-- Node2&#45;&gt;Node1 -->
<g id="edge1" class="edge">
<title>Node2&#45;&gt;Node1</title>
<path fill="none" stroke="midnightblue" d="M69.79,-60.37C79.43,-51.11 91.55,-39.48 100.89,-30.52"/>
<polygon fill="midnightblue" stroke="midnightblue" points="67.17,-58.03 62.38,-67.48 72.02,-63.08 67.17,-58.03"/>
</g>
<!-- Node3 -->
<g id="node3" class="node">
<title>Node3</title>
<g id="a_node3"><a xlink:href="a00084.html" target="_top" xlink:title=" ">
<polygon fill="white" stroke="#bfbfbf" points="125,-67.5 125,-86.5 232,-86.5 232,-67.5 125,-67.5"/>
<text text-anchor="middle" x="178.5" y="-74.5" font-family="Helvetica,sans-Serif" font-size="10.00">I2PointSplineFactory</text>
</a>
</g>
</g>
<!-- Node3&#45;&gt;Node1 -->
<g id="edge2" class="edge">
<title>Node3&#45;&gt;Node1</title>
<path fill="none" stroke="midnightblue" d="M161.95,-60.37C152.15,-51.11 139.83,-39.48 130.35,-30.52"/>
<polygon fill="midnightblue" stroke="midnightblue" points="159.8,-63.15 169.47,-67.48 164.61,-58.06 159.8,-63.15"/>
</g>
</g>
</svg>
