<?xml version="1.0" encoding="UTF-8" standalone="no"?>
<!DOCTYPE svg PUBLIC "-//W3C//DTD SVG 1.1//EN"
 "http://www.w3.org/Graphics/SVG/1.1/DTD/svg11.dtd">
<!-- Generated by graphviz version 3.0.0 (20221109.1736)
 -->
<!-- Title: Lvl3Mage.InterpolationToolkit.Splines.I4PointSplineFactory Pages: 1 -->
<svg width="369pt" height="137pt"
 viewBox="0.00 0.00 369.00 137.00" xmlns="http://www.w3.org/2000/svg" xmlns:xlink="http://www.w3.org/1999/xlink">
<g id="graph0" class="graph" transform="scale(1 1) rotate(0) translate(4 133)">
<title>Lvl3Mage.InterpolationToolkit.Splines.I4PointSplineFactory</title>
<polygon fill="white" stroke="transparent" points="-4,4 -4,-133 365,-133 365,4 -4,4"/>
<!-- Node1 -->
<g id="node1" class="node">
<title>Node1</title>
<g id="a_node1"><a xlink:title=" ">
<polygon fill="#bfbfbf" stroke="black" points="0,-49.5 0,-79.5 146,-79.5 146,-49.5 0,-49.5"/>
<text text-anchor="start" x="8" y="-67.5" font-family="Helvetica,sans-Serif" font-size="10.00">Lvl3Mage.InterpolationToolkit.</text>
<text text-anchor="middle" x="73" y="-56.5" font-family="Helvetica,sans-Serif" font-size="10.00">Splines.I4PointSplineFactory</text>
</a>
</g>
</g>
<!-- Node2 -->
<g id="node2" class="node">
<title>Node2</title>
<g id="a_node2"><a xlink:href="a00060.html" target="_top" xlink:title=" ">
<polygon fill="white" stroke="#bfbfbf" points="182,-98.5 182,-128.5 361,-128.5 361,-98.5 182,-98.5"/>
<text text-anchor="start" x="190" y="-116.5" font-family="Helvetica,sans-Serif" font-size="10.00">Lvl3Mage.InterpolationToolkit.</text>
<text text-anchor="middle" x="271.5" y="-105.5" font-family="Helvetica,sans-Serif" font-size="10.00">Splines.AnimationCurveSplineCreator</text>
</a>
</g>
</g>
<!-- Node1&#45;&gt;Node2 -->
<g id="edge1" class="edge">
<title>Node1&#45;&gt;Node2</title>
<path fill="none" stroke="midnightblue" d="M144.09,-81.98C165.74,-87.38 189.4,-93.28 210.32,-98.49"/>
<polygon fill="midnightblue" stroke="midnightblue" points="144.84,-78.56 134.29,-79.53 143.15,-85.35 144.84,-78.56"/>
</g>
<!-- Node3 -->
<g id="node3" class="node">
<title>Node3</title>
<g id="a_node3"><a xlink:href="a00072.html" target="_top" xlink:title=" ">
<polygon fill="white" stroke="#bfbfbf" points="184.5,-49.5 184.5,-79.5 358.5,-79.5 358.5,-49.5 184.5,-49.5"/>
<text text-anchor="start" x="192.5" y="-67.5" font-family="Helvetica,sans-Serif" font-size="10.00">Lvl3Mage.InterpolationToolkit.</text>
<text text-anchor="middle" x="271.5" y="-56.5" font-family="Helvetica,sans-Serif" font-size="10.00">Splines.Spline4PointFactoryProvider</text>
</a>
</g>
</g>
<!-- Node1&#45;&gt;Node3 -->
<g id="edge2" class="edge">
<title>Node1&#45;&gt;Node3</title>
<path fill="none" stroke="midnightblue" d="M156.12,-64.5C165.48,-64.5 175.04,-64.5 184.45,-64.5"/>
<polygon fill="midnightblue" stroke="midnightblue" points="156.05,-61 146.05,-64.5 156.05,-68 156.05,-61"/>
</g>
<!-- Node4 -->
<g id="node4" class="node">
<title>Node4</title>
<g id="a_node4"><a xlink:href="a00092.html" target="_top" xlink:title=" ">
<polygon fill="white" stroke="#bfbfbf" points="197.5,-0.5 197.5,-30.5 345.5,-30.5 345.5,-0.5 197.5,-0.5"/>
<text text-anchor="start" x="205.5" y="-18.5" font-family="Helvetica,sans-Serif" font-size="10.00">Lvl3Mage.InterpolationToolkit.</text>
<text text-anchor="middle" x="271.5" y="-7.5" font-family="Helvetica,sans-Serif" font-size="10.00">Splines.VibrationSplineCreator</text>
</a>
</g>
</g>
<!-- Node1&#45;&gt;Node4 -->
<g id="edge3" class="edge">
<title>Node1&#45;&gt;Node4</title>
<path fill="none" stroke="midnightblue" d="M144.09,-47.02C165.74,-41.62 189.4,-35.72 210.32,-30.51"/>
<polygon fill="midnightblue" stroke="midnightblue" points="143.15,-43.65 134.29,-49.47 144.84,-50.44 143.15,-43.65"/>
</g>
</g>
</svg>
