<?xml version="1.0" encoding="UTF-8" standalone="no"?>
<!DOCTYPE svg PUBLIC "-//W3C//DTD SVG 1.1//EN"
 "http://www.w3.org/Graphics/SVG/1.1/DTD/svg11.dtd">
<!-- Generated by graphviz version 3.0.0 (20221109.1736)
 -->
<!-- Title: Graphical Class Hierarchy Pages: 1 -->
<svg width="378pt" height="158pt"
 viewBox="0.00 0.00 378.00 158.00" xmlns="http://www.w3.org/2000/svg" xmlns:xlink="http://www.w3.org/1999/xlink">
<g id="graph0" class="graph" transform="scale(1 1) rotate(0) translate(4 154)">
<title>Graphical Class Hierarchy</title>
<polygon fill="white" stroke="transparent" points="-4,4 -4,-154 374,-154 374,4 -4,4"/>
<!-- Node0 -->
<g id="node1" class="node">
<title>Node0</title>
<g id="a_node1"><a xlink:href="a00076.html" target="_top" xlink:title=" ">
<polygon fill="white" stroke="black" points="0,-60 0,-90 146,-90 146,-60 0,-60"/>
<text text-anchor="start" x="8" y="-78" font-family="Helvetica,sans-Serif" font-size="10.00">Lvl3Mage.InterpolationToolkit.</text>
<text text-anchor="middle" x="73" y="-67" font-family="Helvetica,sans-Serif" font-size="10.00">Splines.ISpline</text>
</a>
</g>
</g>
<!-- Node1 -->
<g id="node2" class="node">
<title>Node1</title>
<g id="a_node2"><a xlink:href="a00064.html" target="_top" xlink:title=" ">
<polygon fill="white" stroke="black" points="185.5,-108.5 185.5,-149.5 366.5,-149.5 366.5,-108.5 185.5,-108.5"/>
<text text-anchor="start" x="193.5" y="-137.5" font-family="Helvetica,sans-Serif" font-size="10.00">Lvl3Mage.InterpolationToolkit.</text>
<text text-anchor="start" x="193.5" y="-126.5" font-family="Helvetica,sans-Serif" font-size="10.00">Splines.AnimationCurveSplineCreator.</text>
<text text-anchor="middle" x="276" y="-115.5" font-family="Helvetica,sans-Serif" font-size="10.00">AnimationCurveSpline</text>
</a>
</g>
</g>
<!-- Node0&#45;&gt;Node1 -->
<g id="edge1" class="edge">
<title>Node0&#45;&gt;Node1</title>
<path fill="none" stroke="midnightblue" d="M139.66,-92.64C158.51,-97.7 179.22,-103.27 198.65,-108.49"/>
<polygon fill="midnightblue" stroke="midnightblue" points="140.56,-89.26 129.99,-90.04 138.74,-96.02 140.56,-89.26"/>
</g>
<!-- Node2 -->
<g id="node3" class="node">
<title>Node2</title>
<g id="a_node3"><a xlink:href="a00068.html" target="_top" xlink:title=" ">
<polygon fill="white" stroke="black" points="203,-60 203,-90 349,-90 349,-60 203,-60"/>
<text text-anchor="start" x="211" y="-78" font-family="Helvetica,sans-Serif" font-size="10.00">Lvl3Mage.InterpolationToolkit.</text>
<text text-anchor="middle" x="276" y="-67" font-family="Helvetica,sans-Serif" font-size="10.00">Splines.CubicSpline</text>
</a>
</g>
</g>
<!-- Node0&#45;&gt;Node2 -->
<g id="edge2" class="edge">
<title>Node0&#45;&gt;Node2</title>
<path fill="none" stroke="midnightblue" d="M156.29,-75C171.67,-75 187.63,-75 202.68,-75"/>
<polygon fill="midnightblue" stroke="midnightblue" points="156.28,-71.5 146.28,-75 156.28,-78.5 156.28,-71.5"/>
</g>
<!-- Node3 -->
<g id="node4" class="node">
<title>Node3</title>
<g id="a_node4"><a xlink:href="a00096.html" target="_top" xlink:title=" ">
<polygon fill="white" stroke="black" points="182,-0.5 182,-41.5 370,-41.5 370,-0.5 182,-0.5"/>
<text text-anchor="start" x="190" y="-29.5" font-family="Helvetica,sans-Serif" font-size="10.00">Lvl3Mage.InterpolationToolkit.</text>
<text text-anchor="start" x="190" y="-18.5" font-family="Helvetica,sans-Serif" font-size="10.00">Splines.VibrationSplineCreator.Vibration</text>
<text text-anchor="middle" x="276" y="-7.5" font-family="Helvetica,sans-Serif" font-size="10.00">Spline</text>
</a>
</g>
</g>
<!-- Node0&#45;&gt;Node3 -->
<g id="edge3" class="edge">
<title>Node0&#45;&gt;Node3</title>
<path fill="none" stroke="midnightblue" d="M139.66,-57.36C158.51,-52.3 179.22,-46.73 198.65,-41.51"/>
<polygon fill="midnightblue" stroke="midnightblue" points="138.74,-53.98 129.99,-59.96 140.56,-60.74 138.74,-53.98"/>
</g>
</g>
</svg>
